<?xml version="1.0" encoding="utf-8"?>
<!-- Generator: Adobe Illustrator 27.9.0, SVG Export Plug-In . SVG Version: 6.00 Build 0)  -->
<svg version="1.1" id="Layer_1" xmlns="http://www.w3.org/2000/svg" xmlns:xlink="http://www.w3.org/1999/xlink" x="0px" y="0px"
	 viewBox="0 0 12.6 13.2" style="enable-background:new 0 0 12.6 13.2;" xml:space="preserve">
<path d="M6.3,0.2C2.8,0.2,0,3.1,0,6.6s2.8,6.3,6.3,6.3s6.3-2.8,6.3-6.3S9.8,0.2,6.3,0.2z M6.3,11.8V1.4c2.8,0,5.2,2.4,5.2,5.2
	C11.5,9.4,9.2,11.8,6.3,11.8z"/>
<path d="M20.8,0.2c-3.5,0-6.3,2.9-6.3,6.4s2.8,6.3,6.3,6.3s6.3-2.8,6.3-6.3S24.3,0.2,20.8,0.2z M20.8,11.8c-2.9,0-5.2-2.4-5.2-5.2
	s2.4-5.2,5.2-5.2S26,3.8,26,6.6S23.7,11.8,20.8,11.8z"/>
<path d="M20.8,1.4v10.4c-2.9,0-5.2-2.4-5.2-5.2S18,1.4,20.8,1.4z"/>
</svg>
