<?xml version="1.0" encoding="utf-8"?>
<!-- Generator: Adobe Illustrator 27.9.0, SVG Export Plug-In . SVG Version: 6.00 Build 0)  -->
<svg version="1.1" id="Layer_1" xmlns="http://www.w3.org/2000/svg" xmlns:xlink="http://www.w3.org/1999/xlink" x="0px" y="0px"
	 viewBox="0 0 12.6 12.6" style="enable-background:new 0 0 12.6 12.6;" xml:space="preserve">
<style type="text/css">
	.st0{fill:none;stroke:#000000;stroke-width:1.5;stroke-miterlimit:10;}
	.st1{fill:none;stroke:#000000;stroke-width:1.5;stroke-linejoin:bevel;stroke-miterlimit:10;}
</style>
<path d="M21.9,3.6l-1.2-1.2l-2.4,2.3c-0.2,0.2-0.5,0.2-0.7,0l-2.4-2.3l-1.2,1.2l2.3,2.3c0.2,0.2,0.2,0.5,0,0.7L14.1,9l1.2,1.2
	l2.4-2.3c0.2-0.2,0.5-0.2,0.7,0l2.4,2.3L21.9,9l-2.4-2.3c-0.2-0.2-0.2-0.5,0-0.7C19.5,5.9,21.9,3.6,21.9,3.6z"/>
<rect x="20.7" y="2.5" transform="matrix(0.7071 0.7071 -0.7071 0.7071 8.2603 -14.3941)" width="1.7" height="0.6"/>
<rect x="13.6" y="2.5" transform="matrix(-0.7071 0.7071 -0.7071 -0.7071 26.6519 -5.4916)" width="1.7" height="0.6"/>
<rect x="20.7" y="9.5" transform="matrix(0.7071 -0.7071 0.7071 0.7071 -0.6422 18.0816)" width="1.7" height="0.6"/>
<rect x="13.6" y="9.5" transform="matrix(-0.7071 -0.7071 0.7071 -0.7071 17.7495 26.9841)" width="1.7" height="0.6"/>
<path class="st0" d="M26.5,1.6c2.2,0,3.9,1.8,3.9,3.9"/>
<path class="st1" d="M0.9,19.7c1.9-1.1,4.3-0.4,5.4,1.4v-5.5c-1.1-1.9-3.5-2.5-5.4-1.4V19.7z"/>
<path class="st1" d="M11.7,19.7c-1.9-1.1-4.3-0.4-5.4,1.4v-5.5c1.1-1.9,3.5-2.5,5.4-1.4V19.7z"/>
<path class="st0" d="M10.1,10.4H2.5V4.2c0-1.1,0.9-2,2-2h5.6V10.4z"/>
<line class="st0" x1="4.4" y1="4.9" x2="8.2" y2="4.9"/>
<line class="st0" x1="4.4" y1="7.7" x2="8.2" y2="7.7"/>
</svg>
