<?xml version="1.0" encoding="utf-8"?>
<!-- Generator: Adobe Illustrator 27.9.0, SVG Export Plug-In . SVG Version: 6.00 Build 0)  -->
<svg version="1.1" id="Layer_1" xmlns="http://www.w3.org/2000/svg" xmlns:xlink="http://www.w3.org/1999/xlink" x="0px" y="0px"
	 viewBox="0 0 20 20" style="enable-background:new 0 0 20 20;" xml:space="preserve">
<style type="text/css">
	.st0{fill:#8F9A9A;}
	.st1{fill:none;stroke:#000000;stroke-linecap:round;stroke-linejoin:round;stroke-miterlimit:10;}
	.st2{fill:none;stroke:#FFFFFF;stroke-width:1.5;stroke-miterlimit:10;}
</style>
<g id="Layer_2_00000062906154082153194920000013956974855238345107_">
	<path class="st0" d="M17,20H3c-1.7,0-3-1.3-3-3V3c0-1.7,1.3-3,3-3h14c1.7,0,3,1.3,3,3v14C20,18.7,18.7,20,17,20z"/>
</g>
<path d="M29.5,7.8l-1.6,1.6l-1.6-1.6l-0.9,0.9c-0.3,0.3-0.7,0.1-0.7-0.3V4.9c0-0.2,0.2-0.4,0.4-0.4h3.5c0.4,0,0.6,0.4,0.3,0.7l-1,1
	L29.5,7.8L29.5,7.8z"/>
<path d="M30.7,7.8l1.6,1.6l1.6-1.6l0.9,0.9c0.3,0.3,0.7,0.1,0.7-0.3V4.9c0-0.2-0.2-0.4-0.4-0.4h-3.4c-0.4,0-0.6,0.4-0.3,0.7l0.9,0.9
	L30.7,7.8L30.7,7.8z"/>
<path d="M29.5,12.2l-1.6-1.6l-1.6,1.6l-0.9-1c-0.3-0.2-0.7,0-0.7,0.3V15c0,0.2,0.1,0.4,0.4,0.4h3.5c0.4,0,0.6-0.4,0.3-0.7L28,13.8
	L29.5,12.2L29.5,12.2z"/>
<path d="M30.7,12.2l1.6-1.6l1.6,1.6l0.9-0.9c0.3-0.3,0.7-0.1,0.7,0.3v3.5c0,0.2-0.2,0.4-0.4,0.4h-3.4c-0.4,0-0.6-0.4-0.3-0.7
	l0.9-0.9L30.7,12.2L30.7,12.2z"/>
<g>
	<path d="M-16.5,4.6l-0.1,0.1C-16.6,4.7-16.6,4.7-16.5,4.6L-16.5,4.6z"/>
	<path d="M-11.8,8.6c0.2,0.2,0.2,0.5,0,0.7c-0.1,0.1-0.3,0.2-0.4,0.2c-0.1,0-0.3-0.1-0.3-0.2l-3.2-3.1V8c0,0.3-0.2,0.5-0.5,0.5
		c-0.3,0-0.5-0.2-0.5-0.5V5c0-0.1,0-0.1,0-0.2l0,0V4.7c0,0,0,0,0.1-0.1c0,0,0,0,0.1-0.1c0,0,0,0,0.1,0l0,0c0.1,0,0.1,0,0.2,0h3
		c0.3,0,0.5,0.2,0.5,0.5s-0.2,0.5-0.5,0.5H-15L-11.8,8.6z"/>
</g>
<g>
	<path d="M-5.9,4.6C-5.8,4.6-5.8,4.7-5.9,4.6C-5.8,4.7-5.8,4.7-5.9,4.6L-5.9,4.6z"/>
	<path d="M-10.6,8.6c-0.2,0.2-0.2,0.5,0,0.7c0.1,0.1,0.3,0.2,0.4,0.2s0.3-0.1,0.3-0.2l3.2-3.2v1.8c0,0.3,0.2,0.5,0.5,0.5
		s0.5-0.2,0.5-0.5v-3c0-0.1,0-0.1,0-0.2l0,0V4.6c0,0,0,0-0.1-0.1c0,0,0,0-0.1-0.1c0,0,0,0-0.1,0l0,0c-0.1,0-0.1,0-0.2,0h-3
		C-9.5,4.5-9.7,4.7-9.7,5s0.2,0.5,0.5,0.5h1.8L-10.6,8.6z"/>
</g>
<g>
	<path d="M-16.5,15.4c-0.1,0-0.1-0.1-0.1-0.1S-16.6,15.3-16.5,15.4L-16.5,15.4z"/>
	<path d="M-11.8,11.4c0.2-0.2,0.2-0.5,0-0.7c-0.1-0.1-0.3-0.2-0.4-0.2c-0.1,0-0.3,0.1-0.3,0.2l-3.2,3.2V12c0-0.3-0.2-0.5-0.5-0.5
		c-0.3,0-0.5,0.2-0.5,0.5v3c0,0.1,0,0.1,0,0.2l0,0v0.1c0,0,0,0,0.1,0.1c0.1,0,0.1,0,0.1,0s0,0,0.1,0l0,0c0.1,0,0.1,0,0.2,0h3
		c0.3,0,0.5-0.2,0.5-0.5s-0.2-0.5-0.5-0.5H-15L-11.8,11.4z"/>
</g>
<g>
	<path d="M-5.9,15.4c0.1,0,0.1-0.1,0.1-0.1C-5.8,15.3-5.8,15.3-5.9,15.4L-5.9,15.4z"/>
	<path d="M-10.6,11.4c-0.2-0.2-0.2-0.5,0-0.7c0.1-0.1,0.3-0.2,0.4-0.2s0.3,0.1,0.3,0.2l3.2,3.2V12c0-0.3,0.2-0.5,0.5-0.5
		s0.5,0.2,0.5,0.5v3c0,0.1,0,0.1,0,0.2l0,0v0.1c0,0,0,0-0.1,0.1c0,0,0,0-0.1,0.1c0,0,0,0-0.1,0l0,0c-0.1,0-0.1,0-0.2,0h-3
		c-0.3,0-0.5-0.2-0.5-0.5s0.2-0.5,0.5-0.5h1.8L-10.6,11.4z"/>
</g>
<g>
	<polyline class="st1" points="4.5,-4 4.5,-8 8.5,-8 	"/>
	<line class="st1" x1="4.5" y1="-8" x2="8.5" y2="-4"/>
</g>
<path class="st2" d="M8,16H4.8C4.4,16,4,15.6,4,15.2V12"/>
<path class="st2" d="M12,16h3.2c0.4,0,0.8-0.4,0.8-0.8V12"/>
<path class="st2" d="M8,4H4.8C4.4,4,4,4.4,4,4.8V8"/>
<path class="st2" d="M12,4h3.2C15.6,4,16,4.4,16,4.8V8"/>
<line class="st2" x1="4.5" y1="15.6" x2="9.1" y2="11.1"/>
<line class="st2" x1="15.6" y1="15.6" x2="11" y2="11.1"/>
<line class="st2" x1="4.5" y1="4.4" x2="9.1" y2="9"/>
<line class="st2" x1="15.6" y1="4.4" x2="11" y2="9"/>
</svg>
