<?xml version="1.0" encoding="utf-8"?>
<!-- Generator: Adobe Illustrator 27.9.0, SVG Export Plug-In . SVG Version: 6.00 Build 0)  -->
<svg version="1.1" id="Layer_1" xmlns="http://www.w3.org/2000/svg" xmlns:xlink="http://www.w3.org/1999/xlink" x="0px" y="0px"
	 viewBox="0 0 12.6 13.2" style="enable-background:new 0 0 12.6 13.2;" xml:space="preserve">
<style type="text/css">
	.st0{fill:none;stroke:#000000;stroke-linecap:round;stroke-linejoin:round;stroke-miterlimit:10;}
</style>
<path d="M18.6,4.4L17,6l-1.6-1.6l-0.9,0.9c-0.3,0.3-0.7,0.1-0.7-0.3V1.5c0-0.2,0.2-0.4,0.4-0.4h3.5c0.4,0,0.6,0.4,0.3,0.7l-1,1
	L18.6,4.4L18.6,4.4z"/>
<path d="M19.8,4.4L21.4,6L23,4.4l0.9,0.9c0.3,0.3,0.7,0.1,0.7-0.3V1.5c0-0.2-0.2-0.4-0.4-0.4h-3.4c-0.4,0-0.6,0.4-0.3,0.7l0.9,0.9
	L19.8,4.4L19.8,4.4z"/>
<path d="M18.6,8.8L17,7.2l-1.6,1.6l-0.9-1c-0.3-0.2-0.7,0-0.7,0.3v3.5c0,0.2,0.1,0.4,0.4,0.4h3.5c0.4,0,0.6-0.4,0.3-0.7l-0.9-0.9
	L18.6,8.8L18.6,8.8z"/>
<path d="M19.8,8.8l1.6-1.6L23,8.8l0.9-0.9c0.3-0.3,0.7-0.1,0.7,0.3v3.5c0,0.2-0.2,0.4-0.4,0.4h-3.4c-0.4,0-0.6-0.4-0.3-0.7l0.9-0.9
	L19.8,8.8L19.8,8.8z"/>
<g>
	<path d="M1,1.2C1,1.2,0.9,1.3,0.9,1.3C0.9,1.3,0.9,1.3,1,1.2C1,1.2,1,1.2,1,1.2z"/>
	<path d="M5.7,5.2c0.2,0.2,0.2,0.5,0,0.7C5.6,6,5.4,6.1,5.3,6.1S5,6,5,5.9L1.8,2.8v1.8c0,0.3-0.2,0.5-0.5,0.5C1,5.1,0.8,4.9,0.8,4.6
		v-3c0-0.1,0-0.1,0-0.2v0c0,0,0-0.1,0-0.1c0,0,0,0,0.1-0.1c0,0,0,0,0.1-0.1c0,0,0,0,0.1,0h0c0.1,0,0.1,0,0.2,0h3
		c0.3,0,0.5,0.2,0.5,0.5c0,0.3-0.2,0.5-0.5,0.5H2.5L5.7,5.2z"/>
</g>
<g>
	<path d="M11.6,1.2c0.1,0,0.1,0.1,0.1,0.1C11.7,1.3,11.7,1.3,11.6,1.2C11.6,1.2,11.6,1.2,11.6,1.2z"/>
	<path d="M6.9,5.2c-0.2,0.2-0.2,0.5,0,0.7C7,6,7.2,6.1,7.3,6.1S7.6,6,7.6,5.9l3.2-3.2v1.8c0,0.3,0.2,0.5,0.5,0.5
		c0.3,0,0.5-0.2,0.5-0.5v-3c0-0.1,0-0.1,0-0.2v0c0,0,0-0.1,0-0.1c0,0,0,0-0.1-0.1c0,0,0,0-0.1-0.1c0,0,0,0-0.1,0h0
		c-0.1,0-0.1,0-0.2,0h-3C8,1.1,7.8,1.3,7.8,1.6c0,0.3,0.2,0.5,0.5,0.5h1.8L6.9,5.2z"/>
</g>
<g>
	<path d="M1,12c-0.1,0-0.1-0.1-0.1-0.1C0.9,11.9,0.9,11.9,1,12C1,12,1,12,1,12z"/>
	<path d="M5.7,8c0.2-0.2,0.2-0.5,0-0.7C5.6,7.2,5.4,7.1,5.3,7.1S5,7.2,5,7.3l-3.2,3.2V8.6c0-0.3-0.2-0.5-0.5-0.5
		C1,8.1,0.8,8.3,0.8,8.6v3c0,0.1,0,0.1,0,0.2v0c0,0,0,0.1,0,0.1c0,0,0,0,0.1,0.1C1,12,1,12,1,12c0,0,0,0,0.1,0h0c0.1,0,0.1,0,0.2,0
		h3c0.3,0,0.5-0.2,0.5-0.5c0-0.3-0.2-0.5-0.5-0.5H2.5L5.7,8z"/>
</g>
<g>
	<path d="M11.6,12c0.1,0,0.1-0.1,0.1-0.1C11.7,11.9,11.7,11.9,11.6,12C11.6,12,11.6,12,11.6,12z"/>
	<path d="M6.9,8c-0.2-0.2-0.2-0.5,0-0.7C7,7.2,7.2,7.1,7.3,7.1s0.3,0.1,0.3,0.2l3.2,3.2V8.6c0-0.3,0.2-0.5,0.5-0.5
		c0.3,0,0.5,0.2,0.5,0.5v3c0,0.1,0,0.1,0,0.2v0c0,0,0,0.1,0,0.1c0,0,0,0-0.1,0.1c0,0,0,0-0.1,0.1c0,0,0,0-0.1,0h0
		c-0.1,0-0.1,0-0.2,0h-3c-0.3,0-0.5-0.2-0.5-0.5c0-0.3,0.2-0.5,0.5-0.5h1.8L6.9,8z"/>
</g>
<g>
	<polyline class="st0" points="0.8,-2.1 0.8,-6.1 4.8,-6.1 	"/>
	<line class="st0" x1="0.8" y1="-6.1" x2="4.8" y2="-2.1"/>
</g>
</svg>
