<?xml version="1.0" encoding="utf-8"?>
<!-- Generator: Adobe Illustrator 27.9.0, SVG Export Plug-In . SVG Version: 6.00 Build 0)  -->
<svg version="1.1" id="Layer_1" xmlns="http://www.w3.org/2000/svg" xmlns:xlink="http://www.w3.org/1999/xlink" x="0px" y="0px"
	 viewBox="0 0 12.6 12.7" style="enable-background:new 0 0 12.6 12.7;" xml:space="preserve">
<style type="text/css">
	.st0{fill:#8F9A9A;}
	.st1{stroke:#000000;stroke-width:0.5;stroke-linejoin:round;}
	.st2{fill:#FFFFFF;}
</style>
<path class="st0" d="M12.6,6.4c0,3.5-2.8,6.3-6.3,6.3S0,9.9,0,6.4S2.8,0,6.3,0S12.6,2.9,12.6,6.4z"/>
<path class="st1" d="M-6,7.2c0-0.6,0-0.7,0.6-1l0.3-0.1c0.6-0.3,1-0.6,1-1.3s-0.5-1.2-1.2-1.2s-1.2,0.5-1.2,1.2h-0.8
	c0-1.1,0.8-1.8,2-1.8s2,0.7,2,1.8c0,0.9-0.5,1.4-1.2,1.8L-5,6.8C-5.2,6.9-5.2,7-5.2,7.3v0.5H-6V7.2L-6,7.2z"/>
<circle class="st1" cx="-5.6" cy="9.4" r="0.6"/>
<path d="M22.7,0c-3.5,0-6.3,2.9-6.3,6.4s2.8,6.3,6.3,6.3S29,9.9,29,6.4S26.2,0,22.7,0z M22.7,11.6c-2.9,0-5.2-2.4-5.2-5.2
	s2.4-5.2,5.2-5.2s5.2,2.4,5.2,5.2S25.6,11.6,22.7,11.6z"/>
<circle class="st1" cx="22.7" cy="3.9" r="0.7"/>
<rect x="22.3" y="5.8" class="st1" width="0.9" height="3.8"/>
<path class="st2" d="M5.4,5.8v3.8h1.8V5.8H5.4z"/>
<circle class="st2" cx="6.3" cy="4.1" r="1.1"/>
</svg>
