<?xml version="1.0" encoding="utf-8"?>
<!-- Generator: Adobe Illustrator 27.9.0, SVG Export Plug-In . SVG Version: 6.00 Build 0)  -->
<svg version="1.1" id="Layer_1" xmlns="http://www.w3.org/2000/svg" xmlns:xlink="http://www.w3.org/1999/xlink" x="0px" y="0px"
	 viewBox="0 0 12.6 12.7" style="enable-background:new 0 0 12.6 12.7;" xml:space="preserve">
<style type="text/css">
	.st0{stroke:#000000;stroke-width:0.5;stroke-linejoin:round;}
</style>
<path d="M6.3,0C2.8,0,0,2.9,0,6.4s2.8,6.3,6.3,6.3s6.3-2.8,6.3-6.3S9.8,0,6.3,0z M6.3,11.6c-2.9,0-5.2-2.4-5.2-5.2s2.4-5.2,5.2-5.2
	s5.2,2.4,5.2,5.2S9.2,11.6,6.3,11.6z"/>
<circle class="st0" cx="6.3" cy="3.9" r="0.7"/>
<path class="st0" d="M-6,7.2c0-0.6,0-0.7,0.6-1l0.3-0.1c0.6-0.3,1-0.6,1-1.3s-0.5-1.2-1.2-1.2s-1.2,0.5-1.2,1.2h-0.8
	c0-1.1,0.8-1.8,2-1.8s2,0.7,2,1.8c0,0.9-0.5,1.4-1.2,1.8L-5,6.8C-5.2,6.9-5.2,7-5.2,7.3v0.5H-6V7.2L-6,7.2z"/>
<circle class="st0" cx="-5.6" cy="9.4" r="0.6"/>
<rect x="5.8" y="5.8" transform="matrix(-1 -1.224647e-16 1.224647e-16 -1 12.6 15.3618)" class="st0" width="0.9" height="3.8"/>
</svg>
