<?xml version="1.0" encoding="utf-8"?>
<!-- Generator: Adobe Illustrator 27.9.0, SVG Export Plug-In . SVG Version: 6.00 Build 0)  -->
<svg version="1.1" id="Layer_1" xmlns="http://www.w3.org/2000/svg" xmlns:xlink="http://www.w3.org/1999/xlink" x="0px" y="0px"
	 viewBox="0 0 12.6 13.2" style="enable-background:new 0 0 12.6 13.2;" xml:space="preserve">
<style type="text/css">
	.st0{stroke:#000000;stroke-width:0.25;stroke-linejoin:round;}
	.st1{stroke:#000000;stroke-width:0.5;stroke-linejoin:round;}
</style>
<path class="st0" d="M5.5,7.9c0-0.9,0-1,0.9-1.5l0.4-0.1c0.9-0.4,1.5-0.9,1.5-1.9S7.5,2.5,6.5,2.5S4.7,3.2,4.7,4.3H3.5
	c0-1.6,1.2-2.7,3-2.7s3,1,3,2.7c0,1.3-0.7,2.1-1.8,2.7L6.9,7.3C6.6,7.4,6.6,7.6,6.6,8v0.7H5.5V7.9L5.5,7.9z"/>
<circle class="st0" cx="6.1" cy="10.7" r="0.9"/>
<path d="M-11.2,0.2c-3.5,0-6.3,2.9-6.3,6.4s2.8,6.3,6.3,6.3s6.3-2.8,6.3-6.3S-7.7,0.2-11.2,0.2z M-11.2,11.8c-2.9,0-5.2-2.4-5.2-5.2
	s2.4-5.2,5.2-5.2S-6,3.8-6,6.6S-8.3,11.8-11.2,11.8z"/>
<path class="st1" d="M-11.7,7.4c0-0.6,0-0.7,0.6-1l0.3-0.1c0.6-0.3,1-0.6,1-1.3s-0.5-1.2-1.2-1.2s-1.2,0.5-1.2,1.2H-13
	c0-1.1,0.8-1.8,2-1.8S-9,3.9-9,5c0,0.9-0.5,1.4-1.2,1.8L-10.7,7c-0.2,0.1-0.2,0.2-0.2,0.5V8h-0.8V7.4L-11.7,7.4z"/>
<circle class="st1" cx="-11.3" cy="9.6" r="0.6"/>
</svg>
