<?xml version="1.0" encoding="utf-8"?>
<!-- Generator: Adobe Illustrator 27.9.0, SVG Export Plug-In . SVG Version: 6.00 Build 0)  -->
<svg version="1.1" id="Layer_1" xmlns="http://www.w3.org/2000/svg" xmlns:xlink="http://www.w3.org/1999/xlink" x="0px" y="0px"
	 viewBox="0 0 12.6 12.6" style="enable-background:new 0 0 12.6 12.6;" xml:space="preserve">
<style type="text/css">
	.st0{fill:none;stroke:#000000;stroke-miterlimit:10;}
	.st1{fill:none;stroke:#000000;stroke-linejoin:round;stroke-miterlimit:10;}
</style>
<polygon class="st0" points="20.9,10.3 15.9,6.3 20.9,2.3 25.9,6.3 "/>
<line class="st0" x1="23.4" y1="4.3" x2="18.4" y2="8.3"/>
<line class="st0" x1="18.4" y1="4.3" x2="23.4" y2="8.3"/>
<path class="st1" d="M10.3,9.8h-8v-5c0-1.1,0.9-2,2-2h4c1.1,0,2,0.9,2,2V9.8z"/>
<line class="st1" x1="2.3" y1="6.3" x2="10.3" y2="6.3"/>
<path d="M4.9,8.1c0,0.3-0.3,0.6-0.6,0.6c-0.3,0-0.6-0.3-0.6-0.6c0-0.3,0.3-0.6,0.6-0.6C4.6,7.4,4.9,7.7,4.9,8.1z"/>
<circle cx="8.4" cy="8.1" r="0.6"/>
<line class="st1" x1="6.3" y1="2.8" x2="6.3" y2="6.3"/>
</svg>
