<?xml version="1.0" encoding="UTF-8"?>
<svg id="Layer_1" data-name="Layer 1" xmlns="http://www.w3.org/2000/svg" viewBox="0 0 640 250">
  <defs>
    <style>
      .cls-1 {
        stroke-width: 0px;
      }
    </style>
  </defs>
  <circle class="cls-1" cx="131.66" cy="35" r="20"/>
  <circle class="cls-1" cx="41.66" cy="125" r="20"/>
  <circle class="cls-1" cx="221.66" cy="125" r="20"/>
  <circle class="cls-1" cx="131.66" cy="215" r="20"/>
  <path class="cls-1" d="m164.31,143.44c6.45-11.41,6.45-25.48,0-36.89-.47-.83.4-1.77,1.28-1.38,10.75,4.73,23.91,2.24,32.13-7.48,8.7-10.29,8.54-25.66-.34-35.79-10.59-12.08-28.99-12.53-40.16-1.35-8.25,8.25-10.16,20.44-5.73,30.51.39.88-.55,1.75-1.39,1.28-11.59-6.55-25.93-6.45-37.43.32-.86.5-1.87-.39-1.42-1.28,5.42-10.78,3.3-24.38-6.36-32.95-10.27-9.12-26.04-9.15-36.35-.08-12.04,10.59-12.48,28.96-1.31,40.12,8.46,8.46,21.06,10.25,31.27,5.38.9-.43,1.78.59,1.25,1.44-7.18,11.62-7.42,26.3-.73,38.13.47.84-.39,1.78-1.27,1.39-10.75-4.73-23.92-2.24-32.13,7.47-8.7,10.29-8.54,25.66.34,35.79,10.59,12.08,28.99,12.53,40.16,1.35,8.25-8.25,10.16-20.44,5.73-30.51-.39-.88.55-1.76,1.38-1.28,11.41,6.45,25.48,6.45,36.89,0,.83-.47,1.77.4,1.38,1.28-4.73,10.75-2.24,23.91,7.47,32.13,10.29,8.7,25.66,8.54,35.79-.34,12.08-10.59,12.53-28.99,1.36-40.16-8.25-8.25-20.44-10.16-30.51-5.73-.88.39-1.76-.55-1.28-1.38Z"/>
  <g>
    <path class="cls-1" d="m322.13,76.39h-10.17l-14.47-34.25v34.25h-10.09V18.44h10.17l14.47,34.25V18.44h10.09v57.95Z"/>
    <path class="cls-1" d="m349.89,53.16v23.23h-10.17v-23.23l-13.68-34.72h10.87l7.9,21.19,8.05-21.19h10.87l-13.84,34.72Z"/>
    <path class="cls-1" d="m390.63,35.56c-.08-3.99-3.36-7.35-7.27-7.35-3.91.08-7.19,3.44-7.19,7.35v23.85c.08,4.61,3.36,7.19,7.19,7.19,3.99-.08,7.27-3.36,7.27-7.19v-5.87h10.17v5.87c0,9.46-7.82,17.28-17.44,17.28s-17.28-7.82-17.28-17.28v-23.85c0-9.7,7.82-17.52,17.28-17.52s17.44,7.82,17.44,17.52v5.71h-10.17v-5.71Z"/>
    <path class="cls-1" d="m322.13,134.99c0,9.54-7.82,17.36-17.44,17.36h-17.28v-57.95h17.28c9.62,0,17.44,7.82,17.44,17.44,0,4.77-1.96,8.76-5.16,11.5,3.21,2.82,5.16,6.8,5.16,11.65Zm-24.63-15.95h7.19c3.91,0,7.27-3.29,7.27-7.19s-3.29-7.27-7.27-7.27h-7.19v14.47Zm7.19,23.15c3.91,0,7.27-3.28,7.27-7.19s-3.29-7.27-7.27-7.27h-7.19v14.47h7.19Z"/>
    <path class="cls-1" d="m362.32,135.38c0,9.46-7.82,17.28-17.44,17.28s-17.28-7.82-17.28-17.28v-40.98h10.09v40.98c.08,4.61,3.36,7.19,7.19,7.19,3.99-.08,7.35-3.36,7.35-7.19v-40.98h10.09v40.98Z"/>
    <path class="cls-1" d="m370.45,94.4h10.17v57.95h-10.17v-57.95Z"/>
    <path class="cls-1" d="m418.86,152.35h-29.72v-57.95h10.17v47.78h19.55v10.17Z"/>
    <path class="cls-1" d="m441.85,94.4c9.62,0,17.44,7.82,17.44,17.44v23.15c0,9.54-7.82,17.36-17.44,17.36h-17.28v-57.95h17.28Zm0,47.78c3.99-.08,7.35-3.28,7.35-7.19v-23.15c-.08-4.07-3.36-7.27-7.35-7.27h-7.12v37.62h7.12Z"/>
    <path class="cls-1" d="m466.24,94.4h10.17v57.95h-10.17v-57.95Z"/>
    <path class="cls-1" d="m519.65,152.35h-10.17l-14.47-34.25v34.25h-10.09v-57.95h10.17l14.47,34.25v-34.25h10.09v57.95Z"/>
    <path class="cls-1" d="m561.09,134.99c0,9.54-7.82,17.36-17.44,17.36s-17.36-7.82-17.36-17.36v-23.15c0-9.62,7.82-17.44,17.36-17.44s17.44,7.82,17.44,17.44h-10.09c-.08-3.99-3.44-7.2-7.35-7.2s-7.27,3.44-7.27,7.2v23.15c.08,3.91,3.44,7.19,7.27,7.19,4.07-.08,7.35-3.28,7.35-7.19v-5.87h-7.35v-10.17h17.44v16.03Z"/>
    <path class="cls-1" d="m329.48,228.31h-10.17v-37.93l-5,19.47h-11.57l-5.16-20.02v38.47h-10.17v-57.95h13.14l8.05,27.61,8.6-27.61h12.28v57.95Z"/>
    <path class="cls-1" d="m347.07,213.85l-3.52,14.47h-10.17l14.15-57.95h13.76l14.15,57.95h-10.17l-3.52-14.47h-14.7Zm7.35-30.03l-5,20.64h10.09l-5.08-20.64Z"/>
    <path class="cls-1" d="m394.38,180.53v47.78h-10.17v-47.78h-12.28v-10.17h34.72v10.17h-12.28Z"/>
    <path class="cls-1" d="m421.44,194.29h19.55v10.09h-19.55v13.76h19.55v10.17h-29.64v-57.95h29.64v10.17h-19.55v13.76Z"/>
    <path class="cls-1" d="m458.19,207.28v21.04h-10.17v-57.95h17.28c9.7,0,17.52,7.82,17.52,17.44v2.19c0,6.72-3.91,12.59-9.62,15.41l10.01,22.91h-11.65l-9.23-21.04h-4.14Zm0-10.09h7.12c3.99-.08,7.35-3.36,7.35-7.19v-2.19c-.08-4.07-3.36-7.27-7.35-7.27h-7.12v16.66Z"/>
    <path class="cls-1" d="m489.78,170.37h10.17v57.95h-10.17v-57.95Z"/>
    <path class="cls-1" d="m517.85,213.85l-3.52,14.47h-10.17l14.15-57.95h13.76l14.15,57.95h-10.17l-3.52-14.47h-14.7Zm7.35-30.03l-5,20.64h10.09l-5.08-20.64Z"/>
    <path class="cls-1" d="m579.87,228.31h-29.72v-57.95h10.17v47.78h19.55v10.17Z"/>
    <path class="cls-1" d="m600.9,218.15c3.91,0,6.73-2.35,6.73-5.71,0-5.08-8.52-6.96-15.01-10.71-4.61-2.58-8.99-7.58-8.99-14.62,0-9.62,7.82-16.74,17.28-16.74s17.44,7.82,17.44,17.44h-10.09c-.24-3.99-3.36-7.27-7.35-7.27s-6.65,1.96-6.65,5.87c0,4.38,7.27,6.65,13.29,9.85,5.24,2.89,10.79,7.59,10.79,15.48,0,9.46-7.82,16.58-17.44,16.58s-17.28-7.82-17.28-17.36h10.09c.16,3.91,3.28,7.19,7.19,7.19Z"/>
  </g>
</svg>