<?xml version="1.0" encoding="UTF-8"?>
<svg id="Layer_1" data-name="Layer 1" xmlns="http://www.w3.org/2000/svg" viewBox="0 0 250 250">
  <defs>
    <style>
      .cls-1 {
        stroke-width: 0px;
      }
    </style>
  </defs>
  <circle class="cls-1" cx="125" cy="35" r="20"/>
  <circle class="cls-1" cx="35" cy="125" r="20"/>
  <circle class="cls-1" cx="215" cy="125" r="20"/>
  <circle class="cls-1" cx="125" cy="215" r="20"/>
  <path class="cls-1" d="m157.65,143.44c6.45-11.41,6.45-25.48,0-36.89-.47-.83.4-1.77,1.28-1.38,10.75,4.73,23.91,2.24,32.13-7.48,8.7-10.29,8.54-25.66-.34-35.79-10.59-12.08-28.99-12.53-40.16-1.35-8.25,8.25-10.16,20.44-5.73,30.51.39.88-.55,1.75-1.39,1.28-11.59-6.55-25.93-6.45-37.43.32-.86.5-1.87-.39-1.42-1.28,5.42-10.78,3.3-24.38-6.36-32.95-10.27-9.12-26.04-9.15-36.35-.08-12.04,10.59-12.48,28.96-1.31,40.12,8.46,8.46,21.06,10.25,31.27,5.38.9-.43,1.78.59,1.25,1.44-7.18,11.62-7.42,26.3-.73,38.13.47.84-.39,1.78-1.27,1.39-10.75-4.73-23.92-2.24-32.13,7.47-8.7,10.29-8.54,25.66.34,35.79,10.59,12.08,28.99,12.53,40.16,1.35,8.25-8.25,10.16-20.44,5.73-30.51-.39-.88.55-1.76,1.38-1.28,11.41,6.45,25.48,6.45,36.89,0,.83-.47,1.77.4,1.38,1.28-4.73,10.75-2.24,23.91,7.47,32.13,10.29,8.7,25.66,8.54,35.79-.34,12.08-10.59,12.53-28.99,1.36-40.16-8.25-8.25-20.44-10.16-30.51-5.73-.88.39-1.76-.55-1.28-1.38Z"/>
</svg>