<?xml version="1.0" encoding="UTF-8"?>
<svg id="Layer_1" data-name="Layer 1" xmlns="http://www.w3.org/2000/svg" viewBox="0 0 1500 250">
  <defs>
    <style>
      .cls-1 {
        stroke-width: 0px;
      }
    </style>
  </defs>
  <g>
    <path class="cls-1" d="m339.53,169.99h-15.6l-22.2-52.56v52.56h-15.48v-88.92h15.6l22.2,52.56v-52.56h15.48v88.92Z"/>
    <path class="cls-1" d="m382.12,134.34v35.64h-15.6v-35.64l-21-53.28h16.68l12.12,32.52,12.36-32.52h16.68l-21.24,53.28Z"/>
    <path class="cls-1" d="m444.64,107.35c-.12-6.12-5.16-11.28-11.16-11.28-6,.12-11.04,5.28-11.04,11.28v36.6c.12,7.08,5.16,11.04,11.04,11.04,6.12-.12,11.16-5.16,11.16-11.04v-9h15.6v9c0,14.52-12,26.52-26.76,26.52s-26.52-12-26.52-26.52v-36.6c0-14.88,12-26.88,26.52-26.88s26.76,12,26.76,26.88v8.76h-15.6v-8.76Z"/>
    <path class="cls-1" d="m550.72,143.35c0,14.64-12,26.64-26.76,26.64h-26.52v-88.92h26.52c14.76,0,26.76,12,26.76,26.76,0,7.32-3,13.44-7.92,17.64,4.92,4.32,7.92,10.44,7.92,17.88Zm-37.8-24.48h11.04c6,0,11.16-5.04,11.16-11.04s-5.04-11.16-11.16-11.16h-11.04v22.2Zm11.04,35.52c6,0,11.16-5.04,11.16-11.04s-5.04-11.16-11.16-11.16h-11.04v22.2h11.04Z"/>
    <path class="cls-1" d="m612.39,143.95c0,14.52-12,26.52-26.76,26.52s-26.52-12-26.52-26.52v-62.88h15.48v62.88c.12,7.08,5.16,11.04,11.04,11.04,6.12-.12,11.28-5.16,11.28-11.04v-62.88h15.48v62.88Z"/>
    <path class="cls-1" d="m624.87,81.07h15.6v88.92h-15.6v-88.92Z"/>
    <path class="cls-1" d="m699.15,169.99h-45.6v-88.92h15.6v73.32h30v15.6Z"/>
    <path class="cls-1" d="m734.42,81.07c14.76,0,26.76,12,26.76,26.76v35.52c0,14.64-12,26.64-26.76,26.64h-26.52v-88.92h26.52Zm0,73.32c6.12-.12,11.28-5.04,11.28-11.04v-35.52c-.12-6.24-5.16-11.16-11.28-11.16h-10.92v57.72h10.92Z"/>
    <path class="cls-1" d="m771.86,81.07h15.6v88.92h-15.6v-88.92Z"/>
    <path class="cls-1" d="m853.81,169.99h-15.6l-22.2-52.56v52.56h-15.48v-88.92h15.6l22.2,52.56v-52.56h15.48v88.92Z"/>
    <path class="cls-1" d="m917.41,143.35c0,14.64-12,26.64-26.76,26.64s-26.64-12-26.64-26.64v-35.52c0-14.76,12-26.76,26.64-26.76s26.76,12,26.76,26.76h-15.48c-.12-6.12-5.28-11.04-11.28-11.04s-11.16,5.28-11.16,11.04v35.52c.12,6,5.28,11.04,11.16,11.04,6.24-.12,11.28-5.04,11.28-11.04v-9h-11.28v-15.6h26.76v24.6Z"/>
    <path class="cls-1" d="m1019.16,169.99h-15.6v-58.2l-7.68,29.88h-17.76l-7.92-30.72v59.04h-15.6v-88.92h20.16l12.36,42.36,13.2-42.36h18.84v88.92Z"/>
    <path class="cls-1" d="m1046.16,147.79l-5.4,22.2h-15.6l21.72-88.92h21.12l21.72,88.92h-15.6l-5.4-22.2h-22.56Zm11.28-46.08l-7.68,31.68h15.48l-7.8-31.68Z"/>
    <path class="cls-1" d="m1118.76,96.66v73.32h-15.6v-73.32h-18.84v-15.6h53.28v15.6h-18.84Z"/>
    <path class="cls-1" d="m1160.28,117.79h30v15.48h-30v21.12h30v15.6h-45.48v-88.92h45.48v15.6h-30v21.12Z"/>
    <path class="cls-1" d="m1216.67,137.71v32.28h-15.6v-88.92h26.52c14.88,0,26.88,12,26.88,26.76v3.36c0,10.32-6,19.32-14.76,23.64l15.36,35.16h-17.88l-14.16-32.28h-6.36Zm0-15.48h10.92c6.12-.12,11.28-5.16,11.28-11.04v-3.36c-.12-6.24-5.16-11.16-11.28-11.16h-10.92v25.56Z"/>
    <path class="cls-1" d="m1265.15,81.07h15.6v88.92h-15.6v-88.92Z"/>
    <path class="cls-1" d="m1308.22,147.79l-5.4,22.2h-15.6l21.72-88.92h21.12l21.72,88.92h-15.6l-5.4-22.2h-22.56Zm11.28-46.08l-7.68,31.68h15.48l-7.8-31.68Z"/>
    <path class="cls-1" d="m1403.38,169.99h-45.6v-88.92h15.6v73.32h30v15.6Z"/>
    <path class="cls-1" d="m1435.66,154.39c6,0,10.32-3.6,10.32-8.76,0-7.8-13.08-10.68-23.04-16.44-7.08-3.96-13.8-11.64-13.8-22.44,0-14.76,12-25.68,26.52-25.68s26.76,12,26.76,26.76h-15.48c-.36-6.12-5.16-11.16-11.28-11.16s-10.2,3-10.2,9c0,6.72,11.16,10.2,20.4,15.12,8.04,4.44,16.56,11.64,16.56,23.76,0,14.52-12,25.44-26.76,25.44s-26.52-12-26.52-26.64h15.48c.24,6,5.04,11.04,11.04,11.04Z"/>
  </g>
  <circle class="cls-1" cx="131.66" cy="35" r="20"/>
  <circle class="cls-1" cx="41.66" cy="125" r="20"/>
  <circle class="cls-1" cx="221.66" cy="125" r="20"/>
  <circle class="cls-1" cx="131.66" cy="215" r="20"/>
  <path class="cls-1" d="m164.31,143.44c6.45-11.41,6.45-25.48,0-36.89-.47-.83.4-1.77,1.28-1.38,10.75,4.73,23.91,2.24,32.13-7.48,8.7-10.29,8.54-25.66-.34-35.79-10.59-12.08-28.99-12.53-40.16-1.35-8.25,8.25-10.16,20.44-5.73,30.51.39.88-.55,1.75-1.39,1.28-11.59-6.55-25.93-6.45-37.43.32-.86.5-1.87-.39-1.42-1.28,5.42-10.78,3.3-24.38-6.36-32.95-10.27-9.12-26.04-9.15-36.35-.08-12.04,10.59-12.48,28.96-1.31,40.12,8.46,8.46,21.06,10.25,31.27,5.38.9-.43,1.78.59,1.25,1.44-7.18,11.62-7.42,26.3-.73,38.13.47.84-.39,1.78-1.27,1.39-10.75-4.73-23.92-2.24-32.13,7.47-8.7,10.29-8.54,25.66.34,35.79,10.59,12.08,28.99,12.53,40.16,1.35,8.25-8.25,10.16-20.44,5.73-30.51-.39-.88.55-1.76,1.38-1.28,11.41,6.45,25.48,6.45,36.89,0,.83-.47,1.77.4,1.38,1.28-4.73,10.75-2.24,23.91,7.47,32.13,10.29,8.7,25.66,8.54,35.79-.34,12.08-10.59,12.53-28.99,1.36-40.16-8.25-8.25-20.44-10.16-30.51-5.73-.88.39-1.76-.55-1.28-1.38Z"/>
</svg>