<?xml version="1.0" encoding="utf-8"?>
<!-- Generator: Adobe Illustrator 27.9.0, SVG Export Plug-In . SVG Version: 6.00 Build 0)  -->
<svg version="1.1" id="marker" xmlns="http://www.w3.org/2000/svg" xmlns:xlink="http://www.w3.org/1999/xlink" x="0px" y="0px"
	 viewBox="0 0 216 216" style="enable-background:new 0 0 216 216;" xml:space="preserve">
<style type="text/css">
	.st0{enable-background:new    ;}
	.st1{fill:#FFFFFF;}
</style>
<path d="M33.9,123.6h148.2c3.8,0,6.9,3.8,6.9,8.4v40.7c0,4.7-3.1,8.4-6.9,8.4H33.9c-3.8,0-6.9-3.8-6.9-8.4V132
	C27,127.4,30.1,123.6,33.9,123.6z"/>
<g class="st0">
	<path d="M52.2,76.3c0-17.1,11.4-29,28.2-29c16.7,0,28.2,11.8,28.2,29c0,17.1-11.4,29-28.2,29C63.6,105.2,52.2,93.4,52.2,76.3z
		 M97.2,76.3c0-11.7-6.6-18.9-16.7-18.9c-10.2,0-16.8,7.2-16.8,18.9c0,11.7,6.6,18.9,16.8,18.9C90.6,95.2,97.2,88,97.2,76.3z"/>
	<path d="M116.1,48.3h11.2l25.4,38v-38h11.2v56h-11.2l-25.4-37.8v37.8h-11.2V48.3z"/>
</g>
<circle class="st1" cx="108" cy="152.4" r="7.4"/>
<circle class="st1" cx="81" cy="152.4" r="7.4"/>
<circle class="st1" cx="135" cy="152.4" r="7.4"/>
</svg>
