<?xml version="1.0" encoding="utf-8"?>
<!-- Generator: Adobe Illustrator 27.9.0, SVG Export Plug-In . SVG Version: 6.00 Build 0)  -->
<svg version="1.1" id="Layer_1" xmlns="http://www.w3.org/2000/svg" xmlns:xlink="http://www.w3.org/1999/xlink" x="0px" y="0px"
	 viewBox="0 0 9.7 9.7" style="enable-background:new 0 0 9.7 9.7;" xml:space="preserve">
<style type="text/css">
	.st0{fill:#FFFFFF;}
</style>
<g>
	<path class="st0" d="M8.7,3.1L8.2,2.4C8.1,2.1,7.8,2,7.6,2C7.4,2,7.3,2,7.2,2.1L6.1,2.7V1.4c0-0.4-0.3-0.8-0.8-0.8H4.4
		C4,0.6,3.7,1,3.7,1.4v1.3L2.5,2.1C2.4,2,2.3,2,2.2,2C1.9,2,1.7,2.1,1.5,2.4L1.1,3.1C1,3.3,0.9,3.5,1,3.7C1,3.9,1.2,4.1,1.3,4.1
		l1.1,0.7L1.3,5.5C1.2,5.6,1,5.8,1,5.9c0,0.2,0,0.4,0.1,0.6l0.5,0.8c0.1,0.2,0.4,0.4,0.6,0.4c0.1,0,0.3,0,0.4-0.1l1-0.6v1.2
		c0,0.4,0.3,0.8,0.8,0.8h0.9C5.6,8.9,6,8.6,6,8.1V7l1,0.6c0.1,0.1,0.2,0.1,0.4,0.1c0.2,0,0.5-0.1,0.6-0.4l0.5-0.8
		c0.2-0.3,0.1-0.8-0.2-1L7.2,4.8l1.2-0.7c0.2-0.1,0.3-0.3,0.4-0.5C8.8,3.5,8.8,3.3,8.7,3.1z M8.1,3.6l-1.7,1c-0.1,0-0.1,0.1-0.1,0.2
		c0,0.1,0,0.2,0.1,0.2l1.6,1L8,6.1L8,6.3L7.5,7L7.5,7.2L7.3,7.1l-1.7-1c0,0-0.1,0-0.1,0c-0.1,0-0.2,0.1-0.2,0.2v2H4.2V6.2
		C4.2,6.1,4.1,6,4,6c0,0-0.1,0-0.1,0L2.2,7L2.1,7.1L2,7L1.6,6.2L1.5,6.1L1.6,6l1.7-1c0.1,0,0.1-0.1,0.1-0.2c0-0.1,0-0.2-0.1-0.2
		l-1.7-1L1.5,3.6l0.1-0.1L2,2.7l0.1-0.1l0.1,0.1L4,3.5c0,0,0.1,0,0.1,0c0.1,0,0.2-0.1,0.2-0.2V1.3h1.2v2.1c0,0.2,0.1,0.3,0.2,0.3
		c0,0,0,0,0.1,0l1.7-1l0.1-0.1l0.1,0.1l0.5,0.8l0.1,0.1L8.1,3.6z"/>
</g>
<path d="M6.4,4.6c-0.1,0-0.1,0.1-0.1,0.2c0,0.1,0,0.2,0.1,0.2l1.6,1L8,6.1L8,6.3L7.5,7L7.5,7.2L7.3,7.1l-1.7-1c0,0-0.1,0-0.1,0
	c-0.1,0-0.2,0.1-0.2,0.2v2H4.2V6.2C4.2,6.1,4.1,6,4,6c0,0-0.1,0-0.1,0L2.2,7L2.1,7.1L2,7L1.6,6.2L1.5,6.1L1.6,6l1.7-1
	c0.1,0,0.1-0.1,0.1-0.2c0-0.1,0-0.2-0.1-0.2l-1.7-1L1.5,3.6l0.1-0.1L2,2.7l0.1-0.1l0.1,0.1L4,3.5c0,0,0.1,0,0.1,0
	c0.1,0,0.2-0.1,0.2-0.2V1.3h1.2v2.1c0,0.2,0.1,0.3,0.2,0.3c0,0,0,0,0.1,0l1.7-1l0.1-0.1l0.1,0.1l0.5,0.8l0.1,0.1L8.1,3.6L6.4,4.6z"
	/>
<g>
	<path d="M4.3-1.6C4.1-1.6,4-1.7,4-1.9v-1.9l-1.6,1c-0.1,0-0.1,0.1-0.2,0.1C2-2.8,1.9-2.9,1.8-3L1.4-3.8C1.3-3.8,1.3-3.9,1.3-4
		s0.1-0.2,0.2-0.2l1.6-1l-1.6-1C1.4-6.3,1.4-6.4,1.3-6.5c0-0.1,0-0.2,0-0.3l0.5-0.8C1.9-7.6,2-7.7,2.2-7.7c0.1,0,0.1,0,0.2,0
		l1.7,0.9l0-1.9c0-0.2,0.2-0.4,0.4-0.4h0.9c0.2,0,0.4,0.2,0.4,0.4v2l1.7-0.9c0.1,0,0.1,0,0.2,0c0.1,0,0.3,0.1,0.3,0.2l0.5,0.8
		c0.1,0.1,0.1,0.2,0,0.3c0,0.1-0.1,0.2-0.2,0.2l-1.7,1l1.6,1.1c0.2,0.1,0.2,0.3,0.1,0.5L7.7-2.9C7.7-2.8,7.5-2.8,7.4-2.8
		c-0.1,0-0.1,0-0.2-0.1l-1.7-1l0,1.9c0,0.2-0.2,0.4-0.4,0.4H4.3z"/>
	<path class="st0" d="M5.3-8.7v2c0,0.2,0.2,0.4,0.4,0.4c0.1,0,0.1,0,0.2,0l1.7-1L8-6.6l-1.7,1c-0.2,0.2-0.2,0.5,0,0.7l1.6,1.1
		L7.4-3.1l-1.7-1c-0.1,0-0.1-0.1-0.2-0.1C5.4-4.2,5.2-4,5.2-3.8v1.9H4.3v-1.9c0-0.2-0.2-0.4-0.3-0.4c-0.1,0-0.1,0-0.2,0.1l-1.7,1
		L1.7-3.9l1.6-1c0.2-0.1,0.2-0.5,0-0.7l-1.6-1l0.4-0.8l1.7,0.9c0.1,0,0.1,0.1,0.2,0.1c0.2,0,0.3-0.1,0.3-0.4v-2H5.3 M5.3-9.4H4.4
		C4-9.4,3.7-9.1,3.7-8.7v1.3L2.5-8C2.4-8,2.3-8.1,2.2-8.1c-0.3,0-0.5,0.1-0.6,0.4L1.1-7C1-6.8,0.9-6.6,1-6.4C1-6.2,1.2-6,1.3-5.9
		l1.1,0.7L1.3-4.6C1.2-4.5,1-4.3,1-4.1c0,0.2,0,0.4,0.1,0.6l0.5,0.8c0.1,0.2,0.4,0.4,0.6,0.4c0.1,0,0.3,0,0.4-0.1l1-0.6v1.2
		c0,0.4,0.3,0.8,0.7,0.8h0.9C5.6-1.2,6-1.5,6-1.9v-1.2l1,0.6c0.1,0.1,0.3,0.1,0.4,0.1c0.3,0,0.5-0.1,0.6-0.4l0.4-0.8
		c0.2-0.3,0.1-0.8-0.2-1L7.2-5.2l1.2-0.7C8.6-6,8.7-6.2,8.7-6.4c0.1-0.2,0-0.4-0.1-0.6L8.2-7.7C8.1-7.9,7.8-8.1,7.6-8.1
		C7.4-8.1,7.3-8,7.2-8L6.1-7.3v-1.3C6.1-9.1,5.7-9.4,5.3-9.4L5.3-9.4z"/>
	<path d="M5.3-8.7v2c0,0.2,0.2,0.4,0.4,0.4c0.1,0,0.1,0,0.2,0l1.7-1L8-6.6l-1.7,1c-0.2,0.2-0.2,0.5,0,0.7l1.6,1.1L7.4-3.1l-1.7-1
		c-0.1,0-0.1-0.1-0.2-0.1C5.4-4.2,5.2-4,5.2-3.8v1.9H4.3v-1.9c0-0.2-0.2-0.4-0.3-0.4c-0.1,0-0.1,0-0.2,0.1l-1.7,1L1.7-3.9l1.6-1
		c0.2-0.1,0.2-0.5,0-0.7l-1.6-1l0.4-0.8l1.7,0.9c0.1,0,0.1,0.1,0.2,0.1c0.2,0,0.3-0.1,0.3-0.4v-2H5.3 M5.5-8.8H5.3H4.4H4.3v0.1v2
		c0,0.1-0.1,0.2-0.2,0.2c0,0-0.1,0-0.1,0L2.2-7.5L2.1-7.5L2-7.4L1.6-6.7L1.5-6.5l0.1,0.1l1.6,1c0.1,0,0.1,0.1,0.1,0.2s0,0.2-0.1,0.2
		l-1.6,1L1.5-4l0.1,0.1L2-3.1L2.1-3l0.1-0.1l1.6-1c0,0,0.1,0,0.1,0c0.1,0,0.2,0.1,0.2,0.2v1.9v0.1h0.1h0.9h0.2v-0.1v-1.9
		C5.4-3.9,5.5-4,5.6-4c0,0,0.1,0,0.1,0l1.7,1l0.1,0.1L7.5-3L8-3.8l0.1-0.1L7.9-4L6.4-5.1c-0.1,0-0.1-0.1-0.1-0.2
		c0-0.1,0-0.2,0.1-0.2l1.7-0.9l0.1-0.1L8.1-6.6L7.7-7.4L7.6-7.5L7.5-7.4l-1.7,1c0,0-0.1,0-0.1,0c-0.1,0-0.2-0.1-0.2-0.3v-2V-8.8
		L5.5-8.8z"/>
</g>
<g>
	<path d="M-4.6,8.5C-4.8,8.5-5,8.4-5,8.2v-2l-1.6,1c-0.1,0-0.1,0.1-0.2,0.1c-0.1,0-0.3-0.1-0.3-0.2l-0.4-0.8c-0.1-0.1-0.1-0.2,0-0.3
		s0.1-0.2,0.2-0.2l1.6-1l-1.6-1c-0.1-0.1-0.1-0.1-0.2-0.2c0-0.1,0-0.2,0-0.3l0.4-0.8C-7,2.4-6.9,2.4-6.8,2.4c0.1,0,0.1,0,0.2,0
		l1.7,0.9l0-1.9C-4.9,1.2-4.7,1-4.5,1h0.9c0.2,0,0.4,0.2,0.4,0.4v2l1.7-0.9c0.1,0,0.1,0,0.2,0c0.1,0,0.3,0.1,0.3,0.2l0.4,0.8
		c0.1,0.2,0.1,0.4-0.1,0.5c0,0-0.1,0.1-0.1,0.1l-1.6,0.9l1.6,1.1C-0.7,6-0.7,6.2-0.8,6.4l-0.5,0.8c-0.1,0.1-0.2,0.2-0.3,0.2
		c-0.1,0-0.1,0-0.2-0.1l-1.6-1l0,1.9c0,0.2-0.2,0.4-0.4,0.4H-4.6z"/>
	<path class="st0" d="M-3.6,1.4v1.9c0,0.2,0.2,0.4,0.4,0.4c0.1,0,0.1,0,0.2,0l1.7-1l0.4,0.8l0,0l-1.7,1c-0.2,0.2-0.2,0.5,0,0.7
		l1.6,1l-0.5,0.8l-1.6-1c-0.1,0-0.1-0.1-0.2-0.1c-0.2,0-0.3,0.1-0.3,0.4v1.9h-0.9V6.2c0-0.2-0.2-0.4-0.3-0.4c-0.1,0-0.1,0-0.2,0.1
		l-1.6,1l-0.5-0.8l1.7-1c0.2-0.2,0.2-0.5,0-0.7l-1.7-1l0.5-0.8L-5,3.7c0.1,0,0.1,0.1,0.2,0.1c0.2,0,0.3-0.1,0.3-0.4V1.4H-3.6
		 M-3.6,0.7h-0.9c-0.4,0-0.8,0.3-0.8,0.8v1.3l-1.2-0.6C-6.5,2-6.7,2-6.8,2C-7,2-7.3,2.1-7.4,2.4l-0.4,0.8C-8,3.3-8,3.5-8,3.7
		c0,0.2,0.2,0.4,0.3,0.5l1.1,0.7l-1.1,0.7C-7.8,5.6-7.9,5.8-8,5.9c0,0.2,0,0.4,0.1,0.6l0.4,0.8C-7.3,7.5-7,7.6-6.8,7.6
		c0.1,0,0.3,0,0.4-0.1l1-0.6v1.2c0,0.4,0.3,0.8,0.8,0.8h0.9C-3.3,8.9-3,8.6-3,8.1V7l1,0.6c0.1,0.1,0.3,0.1,0.4,0.1
		c0.3,0,0.5-0.1,0.6-0.4l0.4-0.8c0.2-0.3,0.1-0.8-0.2-1l-1.1-0.7l1.1-0.6c0.1,0,0.1-0.1,0.2-0.1c0.3-0.2,0.4-0.6,0.2-1l-0.5-0.8
		C-0.9,2.1-1.1,2-1.4,2c-0.1,0-0.3,0-0.4,0.1l-1.1,0.6V1.4C-2.9,1-3.2,0.7-3.6,0.7L-3.6,0.7z"/>
</g>
<circle cx="17.1" cy="4.9" r="4.9"/>
<path class="st0" d="M20.3,3.5l-0.5-0.8l-1.7,1c-0.2,0.2-0.5-0.1-0.5-0.4v-2h-0.9v2c0,0.3-0.3,0.5-0.5,0.3l-1.7-0.9L14,3.5l1.6,1
	c0.2,0.2,0.2,0.5,0,0.7l-1.6,1l0.4,0.8l1.6-1c0.2-0.2,0.5,0,0.5,0.3v2h0.9V6.3C17.5,6,17.8,5.8,18,6l1.6,1l0.5-0.8l-1.6-1
	c-0.2-0.2-0.2-0.5,0-0.7L20.3,3.5L20.3,3.5z"/>
</svg>
