<?xml version="1.0" encoding="utf-8"?>
<!-- Generator: Adobe Illustrator 27.9.0, SVG Export Plug-In . SVG Version: 6.00 Build 0)  -->
<svg version="1.1" id="Layer_1" xmlns="http://www.w3.org/2000/svg" xmlns:xlink="http://www.w3.org/1999/xlink" x="0px" y="0px"
	 viewBox="0 0 12.6 10" style="enable-background:new 0 0 12.6 10;" xml:space="preserve">
<style type="text/css">
	.st0{fill:none;stroke:#000000;stroke-linejoin:round;stroke-miterlimit:10;}
	.st1{fill:none;stroke:#000000;stroke-miterlimit:10;}
	.st2{fill:#8F9A9A;stroke:#8F9A9A;stroke-width:0.25;stroke-linecap:round;stroke-linejoin:round;stroke-miterlimit:10;}
	.st3{fill:#49FCD7;stroke:#49FCD7;stroke-width:0.25;stroke-linecap:round;stroke-linejoin:round;stroke-miterlimit:10;}
	.st4{fill:none;stroke:#FFFFFF;stroke-width:0.5;stroke-linecap:round;stroke-linejoin:round;stroke-miterlimit:10;}
</style>
<polygon class="st0" points="20.1,9 15,5 20.1,1 25.1,5 "/>
<line class="st1" x1="22.6" y1="3" x2="17.6" y2="7"/>
<line class="st1" x1="17.6" y1="3" x2="22.6" y2="7"/>
<g>
	<path class="st2" d="M2.8,2.1l-1,5.7h8l1-5.7H2.8z M4.5,4.6l1.2-1.1c0.1-0.1,0.3-0.1,0.4,0c0.1,0.1,0.1,0.3,0,0.3L4.9,5
		C4.8,5,4.8,5,4.7,5C4.6,5,4.6,5,4.5,5C4.4,4.9,4.4,4.7,4.5,4.6z M4.9,6.7c-0.1,0-0.1,0-0.2-0.1c-0.1-0.1-0.1-0.3,0-0.4l2.8-2.8
		c0.1-0.1,0.3-0.1,0.4,0C8,3.5,8,3.7,7.9,3.8L5.1,6.6C5,6.6,5,6.7,4.9,6.7z M8,5.5L6.9,6.6c0,0-0.1,0.1-0.2,0.1s-0.1,0-0.2-0.1
		c-0.1-0.1-0.1-0.3,0-0.4l1.1-1.1C7.7,5,7.9,5,8,5.1C8.1,5.2,8.1,5.4,8,5.5z"/>
</g>
<g>
	<polygon class="st3" points="2.8,-9.6 10.8,-9.6 9.8,-3.9 1.8,-3.9 	"/>
	<line class="st4" x1="7.7" y1="-8.1" x2="4.9" y2="-5.3"/>
	<line class="st4" x1="5.9" y1="-8" x2="4.7" y2="-6.9"/>
	<line class="st4" x1="7.8" y1="-6.4" x2="6.7" y2="-5.3"/>
</g>
</svg>
