<?xml version="1.0" encoding="utf-8"?>
<!-- Generator: Adobe Illustrator 27.9.0, SVG Export Plug-In . SVG Version: 6.00 Build 0)  -->
<svg version="1.1" id="Layer_1" xmlns="http://www.w3.org/2000/svg" xmlns:xlink="http://www.w3.org/1999/xlink" x="0px" y="0px"
	 viewBox="0 0 12.6 10" style="enable-background:new 0 0 12.6 10;" xml:space="preserve">
<style type="text/css">
	.st0{fill:none;stroke:#000000;stroke-linejoin:round;stroke-miterlimit:10;}
	.st1{fill:none;stroke:#000000;stroke-miterlimit:10;}
	.st2{fill:none;stroke:#FFFFFF;stroke-width:0.25;stroke-linecap:round;stroke-linejoin:round;stroke-miterlimit:10;}
	.st3{fill:none;stroke:#000000;stroke-width:0.75;stroke-linecap:round;stroke-linejoin:round;stroke-miterlimit:10;}
	.st4{fill:#8F9A9A;stroke:#8F9A9A;stroke-width:0.25;stroke-linecap:round;stroke-linejoin:round;stroke-miterlimit:10;}
	.st5{fill:#EC49FD;}
</style>
<polygon class="st0" points="20.1,9 15,5 20.1,1 25.1,5 "/>
<line class="st1" x1="22.6" y1="3" x2="17.6" y2="7"/>
<line class="st1" x1="17.6" y1="3" x2="22.6" y2="7"/>
<line class="st2" x1="9.3" y1="3.6" x2="9.3" y2="6.4"/>
<rect x="13.4" y="2.1" class="st3" width="1.3" height="1.5"/>
<rect x="13.4" y="6.4" class="st3" width="1.3" height="1.5"/>
<path class="st4" d="M10.8,3.6V2.1h-9v1.5h1.5v2.8H1.8v1.5h9V6.4H9.3V3.6H10.8z M8.4,6.4H4.2V3.6h4.3V6.4z"/>
<polygon class="st5" points="9.3,13.1 9.3,15.9 10.8,15.9 10.8,17.4 1.8,17.4 1.8,15.9 3.3,15.9 3.3,13.1 1.8,13.1 1.8,11.6 
	10.8,11.6 10.8,13.1 "/>
<polygon class="st2" points="4.8,13.1 4.8,15.9 6.3,15.9 6.3,17.4 1.8,17.4 1.8,15.9 3.3,15.9 3.3,13.1 1.8,13.1 1.8,11.6 6.3,11.6 
	6.3,13.1 "/>
<polyline class="st2" points="6.3,11.6 10.8,11.6 10.8,13.1 6.3,13.1 "/>
<polyline class="st2" points="6.3,15.9 10.8,15.9 10.8,17.4 6.3,17.4 "/>
<rect x="8" y="-5.8" class="st5" width="2.2" height="3.7"/>
</svg>
