<?xml version="1.0" encoding="utf-8"?>
<!-- Generator: Adobe Illustrator 27.9.0, SVG Export Plug-In . SVG Version: 6.00 Build 0)  -->
<svg version="1.1" id="Layer_1" xmlns="http://www.w3.org/2000/svg" xmlns:xlink="http://www.w3.org/1999/xlink" x="0px" y="0px"
	 viewBox="0 0 12.6 10" style="enable-background:new 0 0 12.6 10;" xml:space="preserve">
<style type="text/css">
	.st0{fill:#CCEF07;}
	.st1{fill:none;stroke:#000000;stroke-linejoin:round;stroke-miterlimit:10;}
	.st2{fill:none;stroke:#000000;stroke-miterlimit:10;}
	.st3{fill:none;stroke:#000000;stroke-width:0.25;stroke-linecap:round;stroke-linejoin:round;stroke-miterlimit:10;}
	.st4{fill:none;stroke:#000000;stroke-width:0.5;stroke-linecap:round;stroke-linejoin:round;stroke-miterlimit:10;}
	.st5{fill:none;stroke:#000000;stroke-width:0.75;stroke-linecap:round;stroke-linejoin:round;stroke-miterlimit:10;}
</style>
<path class="st0" d="M10.8,3.3v3.4c0,0.7-1.1,1.2-2.6,1.2c-0.8,0-1.5-0.2-1.9-0.4C5.8,7.7,5.1,7.9,4.4,7.9C3,7.9,1.8,7.3,1.8,6.7
	V3.3c0-0.7,1.2-1.2,2.6-1.2c0.8,0,1.5,0.2,1.9,0.4c0.5-0.3,1.2-0.4,1.9-0.4C9.7,2.1,10.8,2.7,10.8,3.3z"/>
<polygon class="st1" points="20.1,9 15,5 20.1,1 25.1,5 "/>
<line class="st2" x1="22.6" y1="3" x2="17.6" y2="7"/>
<line class="st2" x1="17.6" y1="3" x2="22.6" y2="7"/>
<path class="st3" d="M10.8,3.3v3.4c0,0.7-1.1,1.2-2.6,1.2c-0.8,0-1.5-0.2-1.9-0.4C5.8,7.7,5.1,7.9,4.4,7.9C3,7.9,1.8,7.3,1.8,6.7
	V3.3C1.8,4,3,4.5,4.4,4.5c0.5,0,0.9-0.1,1.3-0.2c0.2-0.1,0.4-0.1,0.6-0.2c0.2,0.1,0.4,0.2,0.6,0.2c0.4,0.1,0.8,0.2,1.3,0.2
	C9.7,4.5,10.8,4,10.8,3.3z"/>
<path class="st3" d="M10.8,3.3c0,0.7-1.1,1.2-2.6,1.2c-0.5,0-0.9-0.1-1.3-0.2C6.7,4.3,6.5,4.2,6.3,4.1C6.1,4.2,5.9,4.3,5.7,4.3
	C5.3,4.5,4.8,4.5,4.4,4.5C3,4.5,1.8,4,1.8,3.3c0-0.7,1.2-1.2,2.6-1.2c0.8,0,1.5,0.2,1.9,0.4c0.5-0.3,1.2-0.4,1.9-0.4
	C9.7,2.1,10.8,2.7,10.8,3.3z"/>
<path class="st4" d="M10.8,12.1v3.4c0,0.7-2,1.2-4.5,1.2c-2.5,0-4.5-0.5-4.5-1.2v-3.4c0,0.7,2,1.2,4.5,1.2
	C8.8,13.3,10.8,12.8,10.8,12.1z"/>
<ellipse class="st4" cx="6.3" cy="12.1" rx="4.5" ry="1.2"/>
<rect x="-12.8" y="2.1" class="st5" width="9" height="5.7"/>
<ellipse class="st5" cx="-8.3" cy="3.3" rx="4.5" ry="1.2"/>
<ellipse class="st5" cx="-8.3" cy="6.7" rx="4.5" ry="1.2"/>
<ellipse class="st0" cx="14.5" cy="-7.1" rx="1.2" ry="1.4"/>
<line class="st3" x1="6.3" y1="4.1" x2="6.3" y2="7.5"/>
</svg>
