<?xml version="1.0" encoding="utf-8"?>
<!-- Generator: Adobe Illustrator 27.9.0, SVG Export Plug-In . SVG Version: 6.00 Build 0)  -->
<svg version="1.1" id="Layer_1" xmlns="http://www.w3.org/2000/svg" xmlns:xlink="http://www.w3.org/1999/xlink" x="0px" y="0px"
	 viewBox="0 0 12.6 10" style="enable-background:new 0 0 12.6 10;" xml:space="preserve">
<style type="text/css">
	.st0{fill:#FF785A;}
	.st1{fill:none;stroke:#000000;stroke-linejoin:round;stroke-miterlimit:10;}
	.st2{fill:none;stroke:#000000;stroke-miterlimit:10;}
	.st3{fill:none;stroke:#000000;stroke-width:0.75;stroke-linejoin:round;stroke-miterlimit:10;}
	.st4{fill:none;stroke:#000000;stroke-width:0.75;stroke-linecap:round;stroke-linejoin:round;stroke-miterlimit:10;}
	.st5{fill:none;stroke:#000000;stroke-width:0.25;stroke-linecap:round;stroke-linejoin:round;stroke-miterlimit:10;}
</style>
<polygon class="st0" points="10.8,6 10.8,7.9 1.8,7.9 1.8,2.1 6.3,2.1 6.3,4 8.5,4 8.5,6 "/>
<polygon class="st1" points="20.1,9 15,5 20.1,1 25.1,5 "/>
<line class="st2" x1="22.6" y1="3" x2="17.6" y2="7"/>
<line class="st2" x1="17.6" y1="3" x2="22.6" y2="7"/>
<polygon class="st3" points="11,13.3 11,15.6 5,18.1 1.5,17.1 1.5,14.8 7.5,12.3 "/>
<polyline class="st4" points="9.5,14.2 5.1,15.9 3,15.3 "/>
<line class="st4" x1="5.1" y1="15.9" x2="5.1" y2="16.6"/>
<rect x="1.8" y="-4.5" class="st5" width="4.5" height="1.9"/>
<polyline class="st5" points="6.3,-4.5 10.8,-4.5 10.8,-2.5 6.3,-2.5 "/>
<rect x="1.8" y="-8.3" class="st5" width="4.5" height="1.9"/>
<polyline class="st5" points="6.2,-6.4 8.5,-6.4 8.5,-4.5 "/>
<line class="st5" x1="1.8" y1="-6.4" x2="1.8" y2="-4.5"/>
<line class="st5" x1="4.1" y1="-6.4" x2="4.1" y2="-4.5"/>
</svg>
