<?xml version="1.0" encoding="utf-8"?>
<!-- Generator: Adobe Illustrator 27.9.0, SVG Export Plug-In . SVG Version: 6.00 Build 0)  -->
<svg version="1.1" id="Layer_1" xmlns="http://www.w3.org/2000/svg" xmlns:xlink="http://www.w3.org/1999/xlink" x="0px" y="0px"
	 viewBox="0 0 12.6 10" style="enable-background:new 0 0 12.6 10;" xml:space="preserve">
<style type="text/css">
	.st0{fill:none;stroke:#000000;stroke-linejoin:round;stroke-miterlimit:10;}
	.st1{fill:none;stroke:#000000;stroke-miterlimit:10;}
	.st2{fill:none;stroke:#000000;stroke-width:0.5;stroke-linecap:round;stroke-linejoin:round;stroke-miterlimit:10;}
	.st3{fill:none;stroke:#000000;stroke-width:0.75;stroke-linecap:round;stroke-linejoin:round;stroke-miterlimit:10;}
	.st4{fill:#CCEF07;}
	.st5{fill:#CCEF07;stroke:#CCEF07;stroke-width:0.25;stroke-linejoin:round;stroke-miterlimit:10;}
</style>
<polygon class="st0" points="20.1,9 15,5 20.1,1 25.1,5 "/>
<line class="st1" x1="22.6" y1="3" x2="17.6" y2="7"/>
<line class="st1" x1="17.6" y1="3" x2="22.6" y2="7"/>
<path class="st2" d="M10.8,12.1v3.4c0,0.7-2,1.2-4.5,1.2s-4.5-0.5-4.5-1.2v-3.4c0,0.7,2,1.2,4.5,1.2S10.8,12.8,10.8,12.1z"/>
<ellipse class="st2" cx="6.3" cy="12.1" rx="4.5" ry="1.2"/>
<rect x="-12.8" y="2.1" class="st3" width="9" height="5.7"/>
<ellipse class="st3" cx="-8.3" cy="3.3" rx="4.5" ry="1.2"/>
<ellipse class="st3" cx="-8.3" cy="6.7" rx="4.5" ry="1.2"/>
<ellipse class="st4" cx="7.7" cy="-2.5" rx="1.2" ry="1.4"/>
<path class="st5" d="M10.8,6.6c0-0.8-0.7-1.5-1.5-1.6c0.1-0.2,0.1-0.4,0.1-0.6c0-1.3-1.1-2.4-2.4-2.4C5.9,2.1,5,2.9,4.8,4
	C4.5,3.9,4.3,3.8,4,3.8c-1.2,0-2.2,1-2.2,2.2v1.9h9V6.6L10.8,6.6C10.8,6.7,10.8,6.6,10.8,6.6z"/>
</svg>
