<?xml version="1.0" encoding="utf-8"?>
<!-- Generator: Adobe Illustrator 27.9.0, SVG Export Plug-In . SVG Version: 6.00 Build 0)  -->
<svg version="1.1" id="Layer_1" xmlns="http://www.w3.org/2000/svg" xmlns:xlink="http://www.w3.org/1999/xlink" x="0px" y="0px"
	 viewBox="0 0 12.6 10" style="enable-background:new 0 0 12.6 10;" xml:space="preserve">
<style type="text/css">
	.st0{fill:#8F9A9A;stroke:#8F9A9A;stroke-width:0.25;stroke-linecap:round;stroke-linejoin:round;stroke-miterlimit:10;}
	.st1{fill:none;stroke:#000000;stroke-linejoin:round;stroke-miterlimit:10;}
	.st2{fill:none;stroke:#000000;stroke-miterlimit:10;}
	.st3{fill:#60BDFF;stroke:#60BDFF;stroke-width:0.25;stroke-linecap:round;stroke-linejoin:round;stroke-miterlimit:10;}
	.st4{fill:none;stroke:#FFFFFF;stroke-width:0.5;stroke-linecap:round;stroke-linejoin:round;stroke-miterlimit:10;}
</style>
<polygon class="st0" points="8.5,5.2 7.6,5.8 4.9,5.3 5.7,4.3 7.8,4.2 "/>
<polygon class="st0" points="4,6.1 7.2,6.7 7.2,7.8 1.8,7.8 1.8,6.1 "/>
<polygon class="st0" points="3.1,2.1 4.8,3.8 3.8,5.1 1.8,5.1 1.8,2.1 "/>
<polygon class="st0" points="4.5,2.1 8.4,2.1 7.8,3.2 5.7,3.3 "/>
<polygon class="st0" points="10.8,2.1 10.8,5 9.5,4.8 8.7,3.7 9.5,2.1 "/>
<polygon class="st0" points="9.3,5.8 10.8,6 10.8,7.8 8.2,7.8 8.2,6.6 "/>
<polygon class="st1" points="20.1,9 15,5 20.1,1 25.1,5 "/>
<line class="st2" x1="22.6" y1="3" x2="17.6" y2="7"/>
<line class="st2" x1="17.6" y1="3" x2="22.6" y2="7"/>
<rect x="1.8" y="-8.2" class="st3" width="9" height="5.7"/>
<polygon class="st4" points="8.1,-6.6 5.5,-6.5 4,-4.7 7.7,-4 9.2,-5 "/>
<line class="st4" x1="8.1" y1="-6.6" x2="9.3" y2="-8.9"/>
<line class="st4" x1="9.2" y1="-5" x2="11.1" y2="-4.8"/>
<line class="st4" x1="4" y1="-4.7" x2="1.3" y2="-4.7"/>
<line class="st4" x1="7.7" y1="-4" x2="7.7" y2="-1.9"/>
<line class="st4" x1="5.5" y1="-6.5" x2="3.3" y2="-8.7"/>
</svg>
