<?xml version="1.0" encoding="utf-8"?>
<!-- Generator: Adobe Illustrator 27.9.0, SVG Export Plug-In . SVG Version: 6.00 Build 0)  -->
<svg version="1.1" id="Layer_1" xmlns="http://www.w3.org/2000/svg" xmlns:xlink="http://www.w3.org/1999/xlink" x="0px" y="0px"
	 viewBox="0 0 12.6 10" style="enable-background:new 0 0 12.6 10;" xml:space="preserve">
<style type="text/css">
	.st0{fill:#EC49FD;}
	.st1{fill:none;stroke:#000000;stroke-linejoin:round;stroke-miterlimit:10;}
	.st2{fill:none;stroke:#000000;stroke-miterlimit:10;}
	.st3{fill:none;stroke:#FFFFFF;stroke-width:0.25;stroke-linecap:round;stroke-linejoin:round;stroke-miterlimit:10;}
	.st4{fill:none;stroke:#000000;stroke-width:0.75;stroke-linecap:round;stroke-linejoin:round;stroke-miterlimit:10;}
</style>
<polygon class="st0" points="9.3,3.6 9.3,6.4 10.8,6.4 10.8,7.9 1.8,7.9 1.8,6.4 3.3,6.4 3.3,3.6 1.8,3.6 1.8,2.1 10.8,2.1 
	10.8,3.6 "/>
<polygon class="st1" points="20.1,9 15,5 20.1,1 25.1,5 "/>
<line class="st2" x1="22.6" y1="3" x2="17.6" y2="7"/>
<line class="st2" x1="17.6" y1="3" x2="22.6" y2="7"/>
<polygon class="st3" points="4.8,3.6 4.8,6.4 6.3,6.4 6.3,7.9 1.8,7.9 1.8,6.4 3.3,6.4 3.3,3.6 1.8,3.6 1.8,2.1 6.3,2.1 6.3,3.6 "/>
<line class="st3" x1="9.3" y1="3.6" x2="9.3" y2="6.4"/>
<polyline class="st3" points="6.3,2.1 10.8,2.1 10.8,3.6 6.3,3.6 "/>
<rect x="13.4" y="2.1" class="st4" width="1.3" height="1.5"/>
<rect x="13.4" y="6.4" class="st4" width="1.3" height="1.5"/>
<polyline class="st3" points="6.3,6.4 10.8,6.4 10.8,7.9 6.3,7.9 "/>
<rect x="8" y="-5.8" class="st0" width="2.2" height="3.7"/>
</svg>
