<?xml version="1.0" encoding="utf-8"?>
<!-- Generator: Adobe Illustrator 27.9.0, SVG Export Plug-In . SVG Version: 6.00 Build 0)  -->
<svg version="1.1" id="Layer_1" xmlns="http://www.w3.org/2000/svg" xmlns:xlink="http://www.w3.org/1999/xlink" x="0px" y="0px"
	 viewBox="0 0 12.6 10" style="enable-background:new 0 0 12.6 10;" xml:space="preserve">
<style type="text/css">
	.st0{fill:#60BDFF;stroke:#60BDFF;stroke-width:0.25;stroke-linecap:round;stroke-linejoin:round;stroke-miterlimit:10;}
	.st1{fill:none;stroke:#000000;stroke-linejoin:round;stroke-miterlimit:10;}
	.st2{fill:none;stroke:#000000;stroke-miterlimit:10;}
	.st3{fill:none;stroke:#FFFFFF;stroke-width:0.5;stroke-linecap:round;stroke-linejoin:round;stroke-miterlimit:10;}
</style>
<rect x="1.8" y="2.1" class="st0" width="9" height="5.7"/>
<polygon class="st1" points="20.1,9 15,5 20.1,1 25.1,5 "/>
<line class="st2" x1="22.6" y1="3" x2="17.6" y2="7"/>
<line class="st2" x1="17.6" y1="3" x2="22.6" y2="7"/>
<image style="overflow:visible;" width="486" height="399" xlink:href="93C8A28D.jpg"  transform="matrix(1.871201e-02 0 0 1.871201e-02 2.3514 -8.8665)">
</image>
<polygon class="st3" points="8.1,3.7 5.5,3.8 4,5.6 7.7,6.3 9.2,5.3 "/>
<line class="st3" x1="8.1" y1="3.7" x2="9.3" y2="1.4"/>
<line class="st3" x1="9.2" y1="5.3" x2="11.1" y2="5.5"/>
<line class="st3" x1="4" y1="5.6" x2="1.3" y2="5.6"/>
<line class="st3" x1="7.7" y1="6.3" x2="7.7" y2="8.4"/>
<line class="st3" x1="5.5" y1="3.8" x2="3.3" y2="1.6"/>
</svg>
