<?xml version="1.0" encoding="UTF-8"?>
<svg xmlns="http://www.w3.org/2000/svg" xmlns:xlink="http://www.w3.org/1999/xlink" viewBox="0 0 12.64 13.16">
  <defs>
    <style>
      .cls-1 {
        isolation: isolate;
      }

      .cls-2 {
        fill: none;
      }

      .cls-2, .cls-3 {
        stroke-width: 0px;
      }

      .cls-4 {
        clip-path: url(#clippath-1);
      }

      .cls-5 {
        clip-path: url(#clippath);
      }

      .cls-6 {
        mix-blend-mode: multiply;
      }

      .cls-3 {
        fill: #bfcdcd;
      }
    </style>
    <clipPath id="clippath">
      <rect class="cls-2" x="-234.19" y="-1493.88" width="1366" height="697.6"/>
    </clipPath>
    <clipPath id="clippath-1">
      <rect class="cls-2" x="125.72" y="-776.29" width="1006.09" height="768"/>
    </clipPath>
    <image id="image" width="3507" height="4960" xlink:href="../../../CDP-GIS/Binned_20241014/20241021-all-transformed_adj4.png"/>
  </defs>
  <g class="cls-1">
    <g id="cover">
      <g class="cls-6">
        <g class="cls-5">
          <use transform="translate(-940.77 -3083.51) scale(.81)" xlink:href="#image"/>
        </g>
      </g>
      <g class="cls-6">
        <g class="cls-4">
          <use transform="translate(-79.58 -1932.08) scale(.49)" xlink:href="#image"/>
        </g>
      </g>
    </g>
    <g id="text">
      <path class="cls-3" d="m12.4,8.25l-.26-.15c-1.45-.84-1.45-2.2,0-3.04l.26-.15c.23-.13.31-.42.18-.65l-1.12-1.93c-.13-.23-.42-.31-.65-.18l-.26.15c-1.45.84-2.63.15-2.63-1.52v-.3c0-.26-.21-.48-.48-.48h-2.23c-.26,0-.48.21-.48.48v.3c0,1.67-1.18,2.35-2.63,1.52l-.26-.15c-.23-.13-.52-.05-.65.18L.06,4.26c-.13.23-.05.52.18.65l.26.15c1.45.84,1.45,2.2,0,3.04l-.26.15c-.23.13-.31.42-.18.65l1.12,1.93c.13.23.42.31.65.18l.26-.15c1.45-.84,2.63-.15,2.63,1.52v.3c0,.26.21.48.48.48h2.23c.26,0,.48-.21.48-.48v-.3c0-1.67,1.18-2.35,2.63-1.52l.26.15c.23.13.52.05.65-.18l1.12-1.93c.13-.23.05-.52-.18-.65Zm-6.08.55c-1.23,0-2.22-.99-2.22-2.22s.99-2.22,2.22-2.22,2.22.99,2.22,2.22-.99,2.22-2.22,2.22Z"/>
    </g>
  </g>
</svg>