<?xml version="1.0" encoding="utf-8"?>
<!-- Generator: Adobe Illustrator 27.9.0, SVG Export Plug-In . SVG Version: 6.00 Build 0)  -->
<svg version="1.1" id="Layer_1" xmlns="http://www.w3.org/2000/svg" xmlns:xlink="http://www.w3.org/1999/xlink" x="0px" y="0px"
	 viewBox="0 0 12.6 12.6" style="enable-background:new 0 0 12.6 12.6;" xml:space="preserve">
<path d="M10.2,3.6L9,2.4L6.7,4.8C6.5,5,6.1,5,5.9,4.8L3.6,2.4L2.4,3.6l2.3,2.3C5,6.1,5,6.4,4.8,6.6L2.4,9l1.2,1.2l2.3-2.3
	c0.2-0.2,0.5-0.2,0.7,0L9,10.2L10.2,9L7.8,6.7c-0.2-0.2-0.2-0.5,0-0.7C7.8,5.9,10.2,3.6,10.2,3.6z"/>
<rect x="9" y="2.5" transform="matrix(0.7071 0.7071 -0.7071 0.7071 4.8395 -6.1355)" width="1.7" height="0.6"/>
<rect x="1.9" y="2.5" transform="matrix(-0.7071 0.7071 -0.7071 -0.7071 6.7141 2.7669)" width="1.7" height="0.6"/>
<rect x="9" y="9.5" transform="matrix(0.7071 -0.7071 0.7071 0.7071 -4.063 9.8231)" width="1.7" height="0.6"/>
<rect x="1.9" y="9.5" transform="matrix(-0.7071 -0.7071 0.7071 -0.7071 -2.1884 18.7255)" width="1.7" height="0.6"/>
</svg>
