<?xml version="1.0" encoding="utf-8"?>
<!-- Generator: Adobe Illustrator 27.9.0, SVG Export Plug-In . SVG Version: 6.00 Build 0)  -->
<svg version="1.1" id="Layer_1" xmlns="http://www.w3.org/2000/svg" xmlns:xlink="http://www.w3.org/1999/xlink" x="0px" y="0px"
	 viewBox="0 0 12.6 12.6" style="enable-background:new 0 0 12.6 12.6;" xml:space="preserve">
<path d="M20.8-0.1c-3.5,0-6.3,2.9-6.3,6.4s2.8,6.3,6.3,6.3s6.3-2.8,6.3-6.3S24.3-0.1,20.8-0.1z M20.8,11.5c-2.9,0-5.2-2.4-5.2-5.2
	s2.4-5.2,5.2-5.2S26,3.5,26,6.3S23.7,11.5,20.8,11.5z"/>
<path d="M20.8,1.1v10.4c-2.9,0-5.2-2.4-5.2-5.2S18,1.1,20.8,1.1z"/>
<image style="overflow:visible;" width="53" height="55" xlink:href="options.png"  transform="matrix(0.24 0 0 0.24 -13.6223 9.893627e-02)">
</image>
<rect x="5.5" y="1.6" transform="matrix(-1.836970e-16 1 -1 -1.836970e-16 12.6 2.861034e-07)" width="1.7" height="9.3"/>
<rect x="5.5" y="-1.8" transform="matrix(-1.836970e-16 1 -1 -1.836970e-16 9.217 -3.383)" width="1.7" height="9.3"/>
<rect x="5.5" y="5" transform="matrix(-1.836970e-16 1 -1 -1.836970e-16 15.983 3.383)" width="1.7" height="9.3"/>
</svg>
